<?xml version="1.0" standalone="no"?>
<!DOCTYPE svg PUBLIC "-//W3C//DTD SVG 20010904//EN"
 "http://www.w3.org/TR/2001/REC-SVG-20010904/DTD/svg10.dtd">
<svg version="1.0" xmlns="http://www.w3.org/2000/svg"
 width="1500.000000pt" height="1500.000000pt" viewBox="0 0 1500.000000 1500.000000"
 preserveAspectRatio="xMidYMid meet">
<metadata>
Created by potrace 1.11, written by Peter Selinger 2001-2013
</metadata>
<g transform="translate(0.000000,1500.000000) scale(0.100000,-0.100000)"
fill="#000000" stroke="none">
<path d="M3180 9236 c0 -6 -188 -932 -195 -963 l-5 -23 -350 0 -350 0 0 -175
0 -175 316 0 316 0 -5 -22 c-3 -13 -40 -192 -82 -398 -42 -206 -78 -383 -81
-392 -5 -17 -25 -18 -235 -18 l-229 0 0 -175 0 -175 195 0 c107 0 195 -1 195
-3 0 -1 -45 -221 -99 -487 -55 -267 -96 -488 -92 -493 4 -4 83 -6 176 -5 l168
3 101 493 100 492 358 0 c218 0 358 -4 358 -9 0 -6 -43 -220 -95 -478 -52
-257 -95 -476 -95 -485 0 -17 14 -18 169 -18 94 0 172 4 176 9 3 5 48 218 100
473 52 255 97 473 100 486 l5 22 355 0 355 0 0 175 0 175 -321 0 -321 0 6 23
c5 23 166 799 166 804 0 2 106 3 235 3 l235 0 0 175 0 175 -201 0 c-186 0
-200 1 -195 18 6 20 196 956 196 966 0 3 -80 5 -177 4 l-178 -3 -100 -492 -99
-493 -358 0 c-302 0 -358 2 -358 14 0 8 43 224 95 481 52 257 95 473 95 481 0
11 -32 14 -175 14 -96 0 -175 -2 -175 -4z m800 -1353 c-1 -10 -38 -196 -83
-413 l-83 -395 -357 -3 c-278 -2 -357 0 -357 10 0 7 37 194 82 415 l82 403
358 0 c334 0 358 -1 358 -17z"/>
<path d="M7125 9218 c-7 -32 -195 -958 -195 -964 0 -2 -157 -4 -350 -4 l-350
0 0 -175 0 -175 314 0 314 0 -74 -362 c-41 -200 -79 -387 -85 -415 l-10 -53
-230 0 -229 0 0 -175 0 -175 196 0 c181 0 195 -1 190 -17 -7 -24 -196 -952
-196 -964 0 -5 73 -9 174 -9 l174 0 6 26 c7 28 196 953 196 960 0 2 162 4 361
4 l361 0 -6 -27 c-104 -492 -192 -955 -182 -959 6 -2 86 -3 176 -2 l165 3 100
490 101 490 357 3 357 2 0 175 0 175 -320 0 c-176 0 -320 3 -320 7 0 10 160
784 166 806 5 16 25 17 240 17 l234 0 0 175 0 175 -201 0 -201 0 5 23 c3 12
47 225 96 472 50 248 93 460 96 473 l5 22 -178 0 -178 0 -100 -492 -100 -493
-361 -3 -361 -2 99 487 c54 268 99 491 99 495 0 4 -79 8 -175 8 -173 0 -175 0
-180 -22z m805 -1325 c0 -9 -160 -784 -166 -805 -5 -17 -31 -18 -363 -18
l-359 0 74 363 c41 199 79 386 85 415 l10 52 360 0 c197 0 359 -3 359 -7z"/>
<path d="M11077 9233 c-2 -5 -48 -227 -103 -495 l-98 -488 -348 0 -348 0 0
-175 0 -175 310 0 c241 0 310 -3 310 -12 0 -7 -37 -194 -82 -415 l-82 -403
-228 0 -228 0 0 -175 0 -175 190 0 c156 0 190 -2 190 -14 0 -8 -43 -224 -95
-480 -52 -256 -95 -472 -95 -481 0 -13 24 -15 169 -15 102 0 172 4 176 10 3 5
49 218 100 472 52 255 97 473 100 486 l5 22 361 0 c339 0 360 -1 355 -17 -19
-61 -193 -959 -187 -966 4 -4 83 -6 176 -5 l169 3 100 493 99 492 359 0 358 0
-2 173 -3 172 -317 3 c-294 2 -318 4 -318 20 1 9 38 195 83 412 l82 395 235 5
235 5 3 173 2 172 -200 0 c-153 0 -200 3 -200 13 1 6 45 229 99 495 l98 482
-178 0 c-99 0 -179 -2 -179 -4 0 -5 -188 -932 -195 -963 l-5 -23 -361 0 -361
0 5 23 c3 12 47 225 97 472 50 248 94 460 97 473 l5 22 -175 0 c-97 0 -178 -3
-180 -7z m799 -1357 c-7 -29 -166 -796 -166 -802 0 -2 -162 -4 -361 -4 l-361
0 5 23 c3 12 40 191 82 397 42 206 78 383 81 393 5 16 31 17 366 17 l360 0 -6
-24z"/>
<path d="M1711 5183 c-30 -113 -71 -283 -71 -292 0 -8 444 -11 1474 -11 l1474
0 41 165 c22 90 41 167 41 170 0 3 -664 5 -1475 5 l-1474 0 -10 -37z"/>
<path d="M5711 5183 c-30 -113 -71 -283 -71 -292 0 -8 444 -11 1475 -11 l1474
0 10 38 c30 112 71 282 71 291 0 8 -444 11 -1475 11 l-1474 0 -10 -37z"/>
<path d="M9681 5055 c-22 -90 -41 -167 -41 -170 0 -3 664 -5 1475 -5 l1474 0
10 38 c30 112 71 282 71 291 0 8 -444 11 -1474 11 l-1474 0 -41 -165z"/>
</g>
</svg>
