<svg version="1.1" viewBox="0.0 0.0 1500.0 1500.0" fill="none" stroke="none" stroke-linecap="square" stroke-miterlimit="10" xmlns:xlink="http://www.w3.org/1999/xlink" xmlns="http://www.w3.org/2000/svg"><clipPath id="p.0"><path d="m0 0l1500.0 0l0 1500.0l-1500.0 0l0 -1500.0z" clip-rule="nonzero"/></clipPath><g clip-path="url(#p.0)"><path fill="#000000" fill-opacity="0.0" d="m0 0l1500.0 0l0 1500.0l-1500.0 0z" fill-rule="evenodd"/><path fill="#00ff00" d="m0 0l1500.0 0l0 1500.0l-1500.0 0z" fill-rule="evenodd"/><path fill="#000000" fill-opacity="0.0" d="m20.062992 458.97638l1459.874 0l0 582.0473l-1459.874 0z" fill-rule="evenodd"/><path fill="#000000" d="m247.44293 926.1576l20.09375 -98.453125l-39.046875 0l0 -34.4375l45.984375 0l17.109375 -83.90625l-63.09375 0l0 -34.4375l70.015625 0l20.109375 -99.140625l34.671875 0l-20.109375 99.140625l72.796875 0l20.109375 -99.140625l34.90625 0l-20.109375 99.140625l39.984375 0l0 34.4375l-46.921875 0l-17.328125 83.90625l64.25 0l0 34.4375l-71.1875 0l-20.109375 98.453125l-34.65625 0l19.875 -98.453125l-72.578125 0l-20.109375 98.453125l-34.65625 0zm61.703125 -132.89062l72.5625 0l17.34375 -83.90625l-72.8125 0l-17.09375 83.90625zm333.04517 132.89062l20.09375 -98.453125l-39.046875 0l0 -34.4375l45.984375 0l17.109375 -83.90625l-63.09375 0l0 -34.4375l70.015625 0l20.109375 -99.140625l34.671875 0l-20.109375 99.140625l72.796875 0l20.109375 -99.140625l34.90625 0l-20.109375 99.140625l39.984375 0l0 34.4375l-46.921875 0l-17.328125 83.90625l64.25 0l0 34.4375l-71.1875 0l-20.109375 98.453125l-34.65625 0l19.875 -98.453125l-72.578125 0l-20.109375 98.453125l-34.65625 0zm61.703125 -132.89062l72.5625 0l17.34375 -83.90625l-72.8125 0l-17.09375 83.90625zm333.04523 132.89062l20.093628 -98.453125l-39.046814 0l0 -34.4375l45.984314 0l17.109375 -83.90625l-63.09369 0l0 -34.4375l70.015564 0l20.109375 -99.140625l34.671875 0l-20.109375 99.140625l72.796875 0l20.109375 -99.140625l34.90625 0l-20.109375 99.140625l39.984375 0l0 34.4375l-46.921875 0l-17.328125 83.90625l64.25 0l0 34.4375l-71.1875 0l-20.109375 98.453125l-34.65625 0l19.875 -98.453125l-72.578125 0l-20.109375 98.453125l-34.656128 0zm61.703003 -132.89062l72.5625 0l17.34375 -83.90625l-72.8125 0l-17.09375 83.90625z" fill-rule="nonzero"/><path fill="#3c78d8" d="m163.62466 1011.9029l8.598434 -34.393677l295.2126 0l-8.598419 34.393677z" fill-rule="evenodd"/><path fill="#3c78d8" d="m563.69946 1011.9029l8.59845 -34.393677l295.2126 0l-8.59845 34.393677z" fill-rule="evenodd"/><path fill="#3c78d8" d="m963.7769 1011.9029l8.598389 -34.393677l295.2126 0l-8.598389 34.393677z" fill-rule="evenodd"/></g></svg>